<svg width="700" height="350" viewBox="0 0 700 350" fill="none" xmlns="http://www.w3.org/2000/svg">
<rect width="700" height="350" rx="30" fill="#597C4F"/>
<path d="M191.448 201.64C191.704 202.024 191.832 202.44 191.832 202.888C191.832 203.464 191.608 203.976 191.16 204.424C190.776 204.808 190.296 205 189.72 205H164.952C163.48 205 162.328 204.488 161.496 203.464L146.712 182.056H143.832V202.408C143.832 203.112 143.576 203.72 143.064 204.232C142.552 204.744 141.944 205 141.24 205H121.464C120.76 205 120.152 204.744 119.64 204.232C119.128 203.72 118.872 203.112 118.872 202.408V140.392C118.872 139.688 119.128 139.08 119.64 138.568C120.152 138.056 120.76 137.8 121.464 137.8H141.24C141.944 137.8 142.552 138.056 143.064 138.568C143.576 139.08 143.832 139.688 143.832 140.392V160.168H145.944L159.96 139.432C160.92 138.344 162.104 137.8 163.512 137.8H186.648C187.224 137.8 187.704 138.024 188.088 138.472C188.536 138.856 188.76 139.336 188.76 139.912C188.76 140.424 188.6 140.872 188.28 141.256L165.528 169L191.448 201.64ZM260.819 169.96C263.315 170.728 265.459 172.424 267.251 175.048C269.043 177.608 269.939 180.552 269.939 183.88C269.939 190.984 267.635 196.296 263.027 199.816C258.419 203.272 251.699 205 242.867 205H203.315C202.611 205 202.003 204.744 201.491 204.232C200.979 203.72 200.723 203.112 200.723 202.408V140.392C200.723 139.688 200.979 139.08 201.491 138.568C202.003 138.056 202.611 137.8 203.315 137.8H241.906C250.995 137.8 257.683 139.464 261.971 142.792C266.323 146.056 268.499 151.016 268.499 157.672V157.96C268.499 161.032 267.667 163.656 266.003 165.832C264.339 168.008 262.611 169.384 260.819 169.96ZM242.483 158.536C242.483 157.384 242.131 156.392 241.427 155.56C240.787 154.728 239.827 154.312 238.547 154.312H225.683V163.048H238.547C239.827 163.048 240.787 162.6 241.427 161.704C242.131 160.744 242.483 159.688 242.483 158.536ZM239.603 188.488C241.075 188.488 242.163 188.008 242.867 187.048C243.635 186.024 244.019 184.904 244.019 183.688V183.592C244.019 182.376 243.603 181.32 242.771 180.424C242.003 179.528 240.947 179.08 239.603 179.08H225.683V188.488H239.603ZM346.029 186.28C346.733 186.28 347.341 186.536 347.853 187.048C348.365 187.56 348.621 188.168 348.621 188.872V202.408C348.621 203.112 348.365 203.72 347.853 204.232C347.341 204.744 346.733 205 346.029 205H285.357C284.653 205 284.045 204.744 283.533 204.232C283.021 203.72 282.765 203.112 282.765 202.408V140.392C282.765 139.688 283.021 139.08 283.533 138.568C284.045 138.056 284.653 137.8 285.357 137.8H345.069C345.773 137.8 346.381 138.056 346.893 138.568C347.405 139.08 347.661 139.688 347.661 140.392V153.928C347.661 154.632 347.405 155.24 346.893 155.752C346.381 156.264 345.773 156.52 345.069 156.52H307.725V162.568H339.789C340.493 162.568 341.101 162.824 341.613 163.336C342.125 163.848 342.381 164.456 342.381 165.16V177.64C342.381 178.344 342.125 178.952 341.613 179.464C341.101 179.976 340.493 180.232 339.789 180.232H307.725V186.28H346.029ZM387.656 179.08C387.656 181.704 388.52 183.72 390.248 185.128C392.04 186.536 394.44 187.24 397.448 187.24C400.136 187.24 402.12 186.792 403.4 185.896C404.68 185 405.768 183.656 406.664 181.864C407.496 180.2 408.616 179.368 410.024 179.368H430.76C431.336 179.368 431.816 179.592 432.2 180.04C432.648 180.424 432.872 180.904 432.872 181.48C432.872 185.384 431.56 189.224 428.936 193C426.312 196.712 422.312 199.816 416.936 202.312C411.624 204.744 405.128 205.96 397.448 205.96C390.6 205.96 384.488 204.936 379.112 202.888C373.8 200.776 369.576 197.576 366.44 193.288C363.304 188.936 361.736 183.528 361.736 177.064V165.736C361.736 159.272 363.304 153.896 366.44 149.608C369.576 145.256 373.8 142.056 379.112 140.008C384.488 137.896 390.6 136.84 397.448 136.84C405.128 136.84 411.624 138.088 416.936 140.584C422.312 143.016 426.312 146.12 428.936 149.896C431.56 153.608 432.872 157.416 432.872 161.32C432.872 161.896 432.648 162.408 432.2 162.856C431.816 163.24 431.336 163.432 430.76 163.432H410.024C408.616 163.432 407.496 162.6 406.664 160.936C405.768 159.144 404.68 157.8 403.4 156.904C402.12 156.008 400.136 155.56 397.448 155.56C394.44 155.56 392.04 156.264 390.248 157.672C388.52 159.08 387.656 161.096 387.656 163.72V179.08ZM511.17 137.8C511.874 137.8 512.482 138.056 512.994 138.568C513.506 139.08 513.762 139.688 513.762 140.392V155.848C513.762 156.552 513.506 157.16 512.994 157.672C512.482 158.184 511.874 158.44 511.17 158.44H490.53V202.408C490.53 203.112 490.274 203.72 489.762 204.232C489.25 204.744 488.642 205 487.938 205H468.162C467.458 205 466.85 204.744 466.338 204.232C465.826 203.72 465.57 203.112 465.57 202.408V158.44H444.93C444.226 158.44 443.618 158.184 443.106 157.672C442.594 157.16 442.338 156.552 442.338 155.848V140.392C442.338 139.688 442.594 139.08 443.106 138.568C443.618 138.056 444.226 137.8 444.93 137.8H511.17ZM546.845 159.208C554.781 159.208 561.021 161.256 565.565 165.352C570.109 169.448 572.381 174.984 572.381 181.96C572.381 186.312 571.357 190.248 569.309 193.768C567.325 197.224 564.413 199.976 560.573 202.024C556.733 204.008 552.189 205 546.941 205H523.037C522.333 205 521.725 204.744 521.213 204.232C520.701 203.72 520.445 203.112 520.445 202.408V140.392C520.445 139.688 520.701 139.08 521.213 138.568C521.725 138.056 522.333 137.8 523.037 137.8H539.933C540.637 137.8 541.245 138.056 541.757 138.568C542.269 139.08 542.525 139.688 542.525 140.392V159.208H546.845ZM580.541 205C579.837 205 579.229 204.744 578.717 204.232C578.205 203.72 577.949 203.112 577.949 202.408V140.392C577.949 139.688 578.205 139.08 578.717 138.568C579.229 138.056 579.837 137.8 580.541 137.8H596.285C596.989 137.8 597.597 138.056 598.109 138.568C598.621 139.08 598.877 139.688 598.877 140.392V202.408C598.877 203.112 598.621 203.72 598.109 204.232C597.597 204.744 596.989 205 596.285 205H580.541ZM546.845 187.048C548.893 187.048 550.461 186.568 551.549 185.608C552.637 184.648 553.181 183.336 553.181 181.672C553.181 178.344 551.069 176.68 546.845 176.68H542.525V187.048H546.845Z" fill="white"/>
</svg>
